<svg xmlns="http://www.w3.org/2000/svg" viewBox="0 0 900 596.4"><defs><style>.cls-1{fill:#0d1236;}.cls-2{fill:#ffcd82;}</style></defs><g id="Layer_2" data-name="Layer 2"><path class="cls-1" d="M702.32,289.43H831.19L900,151.8H204.08L127.63,381.19H68.81L0,518.81H81.74L5.28,748.2H144.16l53.52-156.85V748.2H703.35l-.86-229.39H783.8l68.82-137.62H702.32ZM344.07,381.19l-8.76,17.52V289.43H458.76l-45.87,91.76Zm97.17,229.38,45.87-91.76h68.82l8.76-17.52V610.57Z" transform="translate(0 -151.8)"/></g><g id="Layer_1" data-name="Layer 1"><polygon class="cls-2" points="679.38 114.69 679.38 252.32 817.01 252.32 771.13 344.08 679.38 344.08 679.38 573.46 587.63 573.46 587.63 114.69 518.81 252.32 587.63 252.32 541.75 344.08 472.94 344.08 404.12 481.7 587.63 481.7 541.75 573.46 220.62 573.46 220.62 298.2 128.87 573.46 37.11 573.46 113.57 344.08 37.11 344.08 82.99 252.32 144.16 252.32 220.62 22.94 312.37 22.94 312.37 481.7 381.19 344.08 312.37 344.08 358.25 252.32 427.06 252.32 495.88 114.69 312.37 114.69 358.25 22.94 862.89 22.94 817.01 114.69 679.38 114.69"/></g></svg>